<svg width="49" height="52" viewBox="0 0 49 52" fill="none" xmlns="http://www.w3.org/2000/svg">
<g filter="url(#filter0_d_365_127)">
<path d="M8.88 40.1896C8.88 40.3816 8.832 40.5576 8.736 40.7176C8.64 40.8776 8.512 41.0056 8.352 41.1016C8.192 41.1976 8.016 41.2456 7.824 41.2456H5.688C5.58667 41.2456 5.49867 41.2109 5.424 41.1416C5.35467 41.0669 5.32 40.9789 5.32 40.8776V36.2056C5.32 36.0989 5.35467 36.0109 5.424 35.9416C5.49867 35.8723 5.58667 35.8376 5.688 35.8376H7.824C8.016 35.8376 8.192 35.8856 8.352 35.9816C8.512 36.0776 8.64 36.2056 8.736 36.3656C8.832 36.5256 8.88 36.7043 8.88 36.9016V40.1896ZM7.928 40.1896V36.9016C7.928 36.8269 7.89333 36.7896 7.824 36.7896H6.384C6.31467 36.7896 6.28 36.8243 6.28 36.8936V40.1976C6.28 40.2669 6.31467 40.3016 6.384 40.3016H7.824C7.85067 40.3016 7.87467 40.2909 7.896 40.2696C7.91733 40.2429 7.928 40.2163 7.928 40.1896ZM10.7389 36.3496C10.7389 36.5149 10.6776 36.6589 10.5549 36.7816C10.4376 36.8989 10.2989 36.9576 10.1389 36.9576C9.9736 36.9576 9.8296 36.8989 9.70694 36.7816C9.5896 36.6589 9.53094 36.5149 9.53094 36.3496C9.53094 36.1896 9.5896 36.0509 9.70694 35.9336C9.8296 35.8109 9.9736 35.7496 10.1389 35.7496C10.2989 35.7496 10.4376 35.8109 10.5549 35.9336C10.6776 36.0509 10.7389 36.1896 10.7389 36.3496ZM10.6109 40.8776C10.6109 40.9789 10.5736 41.0669 10.4989 41.1416C10.4296 41.2109 10.3443 41.2456 10.2429 41.2456H10.0269C9.9256 41.2456 9.8376 41.2109 9.76294 41.1416C9.6936 41.0669 9.65894 40.9789 9.65894 40.8776V37.5576C9.65894 37.4563 9.6936 37.3709 9.76294 37.3016C9.8376 37.2269 9.9256 37.1896 10.0269 37.1896H10.2429C10.3443 37.1896 10.4296 37.2269 10.4989 37.3016C10.5736 37.3709 10.6109 37.4563 10.6109 37.5576V40.8776ZM14.2785 40.3496C14.2785 40.6003 14.1905 40.8136 14.0145 40.9896C13.8438 41.1603 13.6358 41.2456 13.3905 41.2456H12.4465C12.4198 41.2456 12.3932 41.2563 12.3665 41.2776C12.3452 41.2989 12.3345 41.3229 12.3345 41.3496V42.1576C12.3345 42.2589 12.2998 42.3443 12.2305 42.4136C12.1612 42.4883 12.0758 42.5256 11.9745 42.5256H11.7505C11.6492 42.5256 11.5612 42.4883 11.4865 42.4136C11.4172 42.3443 11.3825 42.2589 11.3825 42.1576V37.9976C11.3825 37.8323 11.4225 37.6829 11.5025 37.5496C11.5878 37.4109 11.6972 37.3016 11.8305 37.2216C11.9638 37.1416 12.1132 37.1016 12.2785 37.1016H13.3905C13.5558 37.1016 13.7052 37.1416 13.8385 37.2216C13.9718 37.3016 14.0785 37.4109 14.1585 37.5496C14.2385 37.6829 14.2785 37.8323 14.2785 37.9976V40.3496ZM13.3345 40.1976V38.1656C13.3345 38.1336 13.3212 38.1069 13.2945 38.0856C13.2732 38.0643 13.2492 38.0536 13.2225 38.0536H12.4465C12.4198 38.0536 12.3932 38.0643 12.3665 38.0856C12.3452 38.1069 12.3345 38.1336 12.3345 38.1656V40.1976C12.3345 40.2243 12.3452 40.2483 12.3665 40.2696C12.3932 40.2909 12.4198 40.3016 12.4465 40.3016H13.2225C13.2492 40.3016 13.2732 40.2909 13.2945 40.2696C13.3212 40.2483 13.3345 40.2243 13.3345 40.1976ZM17.8254 38.8696C17.8254 39.0296 17.7854 39.1789 17.7054 39.3176C17.6254 39.4509 17.5187 39.5603 17.3854 39.6456C17.252 39.7256 17.1027 39.7656 16.9374 39.7656H15.9934C15.9667 39.7656 15.94 39.7763 15.9134 39.7976C15.892 39.8136 15.8814 39.8349 15.8814 39.8616V40.1976C15.8814 40.2243 15.892 40.2483 15.9134 40.2696C15.94 40.2909 15.9667 40.3016 15.9934 40.3016H16.9374C17.0387 40.3016 17.124 40.3363 17.1934 40.4056C17.268 40.4749 17.3054 40.5629 17.3054 40.6696V40.8776C17.3054 40.9789 17.268 41.0669 17.1934 41.1416C17.124 41.2109 17.0387 41.2456 16.9374 41.2456H15.8254C15.58 41.2456 15.3694 41.1603 15.1934 40.9896C15.0174 40.8136 14.9294 40.6003 14.9294 40.3496V37.9976C14.9294 37.8323 14.9694 37.6829 15.0494 37.5496C15.1347 37.4163 15.244 37.3096 15.3774 37.2296C15.5107 37.1443 15.66 37.1016 15.8254 37.1016H16.9374C17.1027 37.1016 17.252 37.1443 17.3854 37.2296C17.5187 37.3096 17.6254 37.4163 17.7054 37.5496C17.7854 37.6829 17.8254 37.8323 17.8254 37.9976V38.8696ZM16.8814 38.7096V38.1656C16.8814 38.1336 16.868 38.1069 16.8414 38.0856C16.82 38.0643 16.796 38.0536 16.7694 38.0536H15.9934C15.9667 38.0536 15.94 38.0643 15.9134 38.0856C15.892 38.1069 15.8814 38.1336 15.8814 38.1656V38.7096C15.8814 38.7309 15.892 38.7523 15.9134 38.7736C15.94 38.7949 15.9667 38.8056 15.9934 38.8056H16.7694C16.796 38.8056 16.82 38.7949 16.8414 38.7736C16.868 38.7523 16.8814 38.7309 16.8814 38.7096ZM21.3723 40.3496C21.3723 40.6003 21.2843 40.8136 21.1083 40.9896C20.9376 41.1603 20.7296 41.2456 20.4843 41.2456H19.3723C19.1269 41.2456 18.9163 41.1603 18.7403 40.9896C18.5643 40.8136 18.4763 40.6003 18.4763 40.3496V40.0216C18.4763 39.9203 18.5109 39.8349 18.5803 39.7656C18.6549 39.6909 18.7429 39.6536 18.8443 39.6536H19.0683C19.1696 39.6536 19.2549 39.6909 19.3243 39.7656C19.3936 39.8349 19.4283 39.9203 19.4283 40.0216V40.1976C19.4283 40.2669 19.4656 40.3016 19.5403 40.3016H20.3163C20.3429 40.3016 20.3669 40.2909 20.3883 40.2696C20.4149 40.2483 20.4283 40.2243 20.4283 40.1976V39.9016C20.4283 39.8589 20.4069 39.8296 20.3643 39.8136L19.2043 39.4456C18.9909 39.3709 18.8149 39.2429 18.6763 39.0616C18.5429 38.8803 18.4763 38.6749 18.4763 38.4456V37.9976C18.4763 37.8323 18.5163 37.6829 18.5963 37.5496C18.6816 37.4163 18.7909 37.3096 18.9243 37.2296C19.0576 37.1443 19.2069 37.1016 19.3723 37.1016H20.4843C20.6496 37.1016 20.7989 37.1443 20.9323 37.2296C21.0656 37.3096 21.1723 37.4163 21.2523 37.5496C21.3323 37.6829 21.3723 37.8323 21.3723 37.9976V38.3176C21.3723 38.4189 21.3376 38.5069 21.2683 38.5816C21.1989 38.6509 21.1136 38.6856 21.0123 38.6856H20.7883C20.6869 38.6856 20.6016 38.6509 20.5323 38.5816C20.4629 38.5069 20.4283 38.4189 20.4283 38.3176V38.1656C20.4283 38.1336 20.4149 38.1069 20.3883 38.0856C20.3669 38.0643 20.3429 38.0536 20.3163 38.0536H19.5403C19.4656 38.0536 19.4283 38.0909 19.4283 38.1656V38.4456C19.4283 38.4989 19.4496 38.5309 19.4923 38.5416L20.6523 38.9096C20.8709 38.9789 21.0443 39.1043 21.1723 39.2856C21.3056 39.4669 21.3723 39.6723 21.3723 39.9016V40.3496ZM24.9191 40.8776C24.9191 40.9789 24.8845 41.0669 24.8151 41.1416C24.7458 41.2109 24.6605 41.2456 24.5591 41.2456H24.3351C24.2338 41.2456 24.1485 41.2109 24.0791 41.1416C24.0098 41.0669 23.9751 40.9789 23.9751 40.8776V38.1656C23.9751 38.1336 23.9618 38.1069 23.9351 38.0856C23.9138 38.0643 23.8898 38.0536 23.8631 38.0536H23.0871C23.0605 38.0536 23.0338 38.0643 23.0071 38.0856C22.9858 38.1069 22.9751 38.1336 22.9751 38.1656V40.8776C22.9751 40.9789 22.9405 41.0669 22.8711 41.1416C22.8018 41.2109 22.7165 41.2456 22.6151 41.2456H22.3911C22.2898 41.2456 22.2018 41.2109 22.1271 41.1416C22.0578 41.0669 22.0231 40.9789 22.0231 40.8776V36.2056C22.0231 36.0989 22.0578 36.0109 22.1271 35.9416C22.2018 35.8723 22.2898 35.8376 22.3911 35.8376H22.6151C22.7165 35.8376 22.8018 35.8723 22.8711 35.9416C22.9405 36.0109 22.9751 36.0989 22.9751 36.2056V37.0056C22.9751 37.0323 22.9858 37.0563 23.0071 37.0776C23.0338 37.0936 23.0605 37.1016 23.0871 37.1016H24.0311C24.1965 37.1016 24.3458 37.1416 24.4791 37.2216C24.6125 37.3016 24.7191 37.4109 24.7991 37.5496C24.8791 37.6829 24.9191 37.8323 24.9191 37.9976V40.8776ZM31.0778 40.1896C31.0778 40.3816 31.0298 40.5576 30.9338 40.7176C30.8378 40.8776 30.7098 41.0056 30.5498 41.1016C30.3898 41.1976 30.2138 41.2456 30.0218 41.2456H28.4858C28.2938 41.2456 28.1151 41.1976 27.9498 41.1016C27.7898 41.0056 27.6618 40.8776 27.5658 40.7176C27.4698 40.5576 27.4218 40.3816 27.4218 40.1896V39.9496C27.4218 39.8483 27.4564 39.7629 27.5258 39.6936C27.6004 39.6189 27.6884 39.5816 27.7898 39.5816H28.0138C28.1098 39.5816 28.1924 39.6189 28.2618 39.6936C28.3364 39.7629 28.3738 39.8483 28.3738 39.9496V40.1896C28.3738 40.2163 28.3844 40.2429 28.4058 40.2696C28.4324 40.2909 28.4591 40.3016 28.4858 40.3016H30.0218C30.0484 40.3016 30.0724 40.2909 30.0938 40.2696C30.1151 40.2429 30.1258 40.2163 30.1258 40.1896V39.4616C30.1258 39.4029 30.0991 39.3656 30.0458 39.3496L28.1258 38.6296C27.9124 38.5549 27.7418 38.4243 27.6138 38.2376C27.4858 38.0509 27.4218 37.8456 27.4218 37.6216V36.9016C27.4218 36.7043 27.4698 36.5256 27.5658 36.3656C27.6618 36.2056 27.7898 36.0776 27.9498 35.9816C28.1151 35.8856 28.2938 35.8376 28.4858 35.8376H30.0218C30.2138 35.8376 30.3898 35.8856 30.5498 35.9816C30.7098 36.0776 30.8378 36.2056 30.9338 36.3656C31.0298 36.5256 31.0778 36.7043 31.0778 36.9016V37.1176C31.0778 37.2189 31.0404 37.3043 30.9658 37.3736C30.8964 37.4429 30.8111 37.4776 30.7098 37.4776H30.4938C30.3924 37.4776 30.3044 37.4429 30.2298 37.3736C30.1604 37.3043 30.1258 37.2189 30.1258 37.1176V36.9016C30.1258 36.8269 30.0911 36.7896 30.0218 36.7896H28.4858C28.4591 36.7896 28.4324 36.8003 28.4058 36.8216C28.3844 36.8429 28.3738 36.8696 28.3738 36.9016V37.6216C28.3738 37.6856 28.4004 37.7256 28.4538 37.7416L30.3818 38.4616C30.5898 38.5363 30.7578 38.6669 30.8858 38.8536C31.0138 39.0403 31.0778 39.2429 31.0778 39.4616V40.1896ZM32.9343 36.3496C32.9343 36.5149 32.8729 36.6589 32.7503 36.7816C32.6329 36.8989 32.4943 36.9576 32.3343 36.9576C32.1689 36.9576 32.0249 36.8989 31.9023 36.7816C31.7849 36.6589 31.7263 36.5149 31.7263 36.3496C31.7263 36.1896 31.7849 36.0509 31.9023 35.9336C32.0249 35.8109 32.1689 35.7496 32.3343 35.7496C32.4943 35.7496 32.6329 35.8109 32.7503 35.9336C32.8729 36.0509 32.9343 36.1896 32.9343 36.3496ZM32.8063 40.8776C32.8063 40.9789 32.7689 41.0669 32.6943 41.1416C32.6249 41.2109 32.5396 41.2456 32.4383 41.2456H32.2223C32.1209 41.2456 32.0329 41.2109 31.9583 41.1416C31.8889 41.0669 31.8543 40.9789 31.8543 40.8776V37.5576C31.8543 37.4563 31.8889 37.3709 31.9583 37.3016C32.0329 37.2269 32.1209 37.1896 32.2223 37.1896H32.4383C32.5396 37.1896 32.6249 37.2269 32.6943 37.3016C32.7689 37.3709 32.8063 37.4563 32.8063 37.5576V40.8776ZM36.4738 40.8776C36.4738 40.9789 36.4391 41.0669 36.3698 41.1416C36.3005 41.2109 36.2151 41.2456 36.1138 41.2456H35.8898C35.7885 41.2456 35.7031 41.2109 35.6338 41.1416C35.5645 41.0669 35.5298 40.9789 35.5298 40.8776V38.1656C35.5298 38.1336 35.5165 38.1069 35.4898 38.0856C35.4685 38.0643 35.4445 38.0536 35.4178 38.0536H34.6418C34.6151 38.0536 34.5885 38.0643 34.5618 38.0856C34.5405 38.1069 34.5298 38.1336 34.5298 38.1656V40.8776C34.5298 40.9789 34.4951 41.0669 34.4258 41.1416C34.3565 41.2109 34.2711 41.2456 34.1698 41.2456H33.9458C33.8445 41.2456 33.7565 41.2109 33.6818 41.1416C33.6125 41.0669 33.5778 40.9789 33.5778 40.8776V37.9976C33.5778 37.8323 33.6178 37.6829 33.6978 37.5496C33.7831 37.4109 33.8925 37.3016 34.0258 37.2216C34.1591 37.1416 34.3085 37.1016 34.4738 37.1016H35.5858C35.7511 37.1016 35.9005 37.1416 36.0338 37.2216C36.1671 37.3016 36.2738 37.4109 36.3538 37.5496C36.4338 37.6829 36.4738 37.8323 36.4738 37.9976V40.8776ZM40.0207 41.6296C40.0207 41.7896 39.9807 41.9363 39.9007 42.0696C39.8207 42.2083 39.714 42.3176 39.5807 42.3976C39.4474 42.4829 39.298 42.5256 39.1327 42.5256H38.0207C37.9194 42.5256 37.8314 42.4883 37.7567 42.4136C37.6874 42.3443 37.6527 42.2589 37.6527 42.1576V41.9336C37.6527 41.8323 37.6874 41.7469 37.7567 41.6776C37.8314 41.6083 37.9194 41.5736 38.0207 41.5736H38.9647C38.9914 41.5736 39.0154 41.5629 39.0367 41.5416C39.0634 41.5203 39.0767 41.4963 39.0767 41.4696V41.3496C39.0767 41.3229 39.0634 41.2989 39.0367 41.2776C39.0154 41.2563 38.9914 41.2456 38.9647 41.2456H38.0207C37.7754 41.2456 37.5647 41.1603 37.3887 40.9896C37.2127 40.8136 37.1247 40.6003 37.1247 40.3496V37.9976C37.1247 37.8323 37.1647 37.6829 37.2447 37.5496C37.33 37.4109 37.4394 37.3016 37.5727 37.2216C37.706 37.1416 37.8554 37.1016 38.0207 37.1016H39.1327C39.298 37.1016 39.4474 37.1416 39.5807 37.2216C39.714 37.3016 39.8207 37.4109 39.9007 37.5496C39.9807 37.6829 40.0207 37.8323 40.0207 37.9976V41.6296ZM39.0767 40.1976V38.1656C39.0767 38.1336 39.0634 38.1069 39.0367 38.0856C39.0154 38.0643 38.9914 38.0536 38.9647 38.0536H38.1887C38.162 38.0536 38.1354 38.0643 38.1087 38.0856C38.0874 38.1069 38.0767 38.1336 38.0767 38.1656V40.1976C38.0767 40.2243 38.0874 40.2483 38.1087 40.2696C38.1354 40.2909 38.162 40.3016 38.1887 40.3016H38.9647C38.9914 40.3016 39.0154 40.2909 39.0367 40.2696C39.0634 40.2483 39.0767 40.2243 39.0767 40.1976ZM43.5676 40.8776C43.5676 40.9789 43.5329 41.0669 43.4636 41.1416C43.3942 41.2109 43.3089 41.2456 43.2076 41.2456H42.9836C42.8822 41.2456 42.7969 41.2109 42.7276 41.1416C42.6582 41.0669 42.6236 40.9789 42.6236 40.8776V38.1656C42.6236 38.1336 42.6102 38.1069 42.5836 38.0856C42.5622 38.0643 42.5382 38.0536 42.5116 38.0536H41.7356C41.7089 38.0536 41.6822 38.0643 41.6556 38.0856C41.6342 38.1069 41.6236 38.1336 41.6236 38.1656V40.8776C41.6236 40.9789 41.5889 41.0669 41.5196 41.1416C41.4502 41.2109 41.3649 41.2456 41.2636 41.2456H41.0396C40.9382 41.2456 40.8502 41.2109 40.7756 41.1416C40.7062 41.0669 40.6716 40.9789 40.6716 40.8776V36.2056C40.6716 36.0989 40.7062 36.0109 40.7756 35.9416C40.8502 35.8723 40.9382 35.8376 41.0396 35.8376H41.2636C41.3649 35.8376 41.4502 35.8723 41.5196 35.9416C41.5889 36.0109 41.6236 36.0989 41.6236 36.2056V37.0056C41.6236 37.0323 41.6342 37.0563 41.6556 37.0776C41.6822 37.0936 41.7089 37.1016 41.7356 37.1016H42.6796C42.8449 37.1016 42.9942 37.1416 43.1276 37.2216C43.2609 37.3016 43.3676 37.4109 43.4476 37.5496C43.5276 37.6829 43.5676 37.8323 43.5676 37.9976V40.8776Z" fill="#B291C2"/>
</g>
<g filter="url(#filter1_d_365_127)">
<path d="M42.2901 16.5594L24 28.2428V22.6147L38.137 14.1709V14.0702L24 5.62112V0L42.2901 11.6834V16.5594Z" fill="#A177B4"/>
</g>
<g filter="url(#filter2_d_365_127)">
<path d="M6 18.8336L24.2895 7V12.6276L10.4583 21.069V21.1749L24.2932 29.618V35.2456L6 23.3999V18.8336Z" fill="white"/>
</g>
<defs>
<filter id="filter0_d_365_127" x="0.320007" y="34.7496" width="48.2476" height="16.776" filterUnits="userSpaceOnUse" color-interpolation-filters="sRGB">
<feFlood flood-opacity="0" result="BackgroundImageFix"/>
<feColorMatrix in="SourceAlpha" type="matrix" values="0 0 0 0 0 0 0 0 0 0 0 0 0 0 0 0 0 0 127 0" result="hardAlpha"/>
<feOffset dy="4"/>
<feGaussianBlur stdDeviation="2.5"/>
<feComposite in2="hardAlpha" operator="out"/>
<feColorMatrix type="matrix" values="0 0 0 0 0 0 0 0 0 0 0 0 0 0 0 0 0 0 0.25 0"/>
<feBlend mode="normal" in2="BackgroundImageFix" result="effect1_dropShadow_365_127"/>
<feBlend mode="normal" in="SourceGraphic" in2="effect1_dropShadow_365_127" result="shape"/>
</filter>
<filter id="filter1_d_365_127" x="21" y="0" width="24.2901" height="35.2428" filterUnits="userSpaceOnUse" color-interpolation-filters="sRGB">
<feFlood flood-opacity="0" result="BackgroundImageFix"/>
<feColorMatrix in="SourceAlpha" type="matrix" values="0 0 0 0 0 0 0 0 0 0 0 0 0 0 0 0 0 0 127 0" result="hardAlpha"/>
<feOffset dy="4"/>
<feGaussianBlur stdDeviation="1.5"/>
<feComposite in2="hardAlpha" operator="out"/>
<feColorMatrix type="matrix" values="0 0 0 0 0 0 0 0 0 0 0 0 0 0 0 0 0 0 0.25 0"/>
<feBlend mode="normal" in2="BackgroundImageFix" result="effect1_dropShadow_365_127"/>
<feBlend mode="normal" in="SourceGraphic" in2="effect1_dropShadow_365_127" result="shape"/>
</filter>
<filter id="filter2_d_365_127" x="3" y="7" width="24.2932" height="35.2456" filterUnits="userSpaceOnUse" color-interpolation-filters="sRGB">
<feFlood flood-opacity="0" result="BackgroundImageFix"/>
<feColorMatrix in="SourceAlpha" type="matrix" values="0 0 0 0 0 0 0 0 0 0 0 0 0 0 0 0 0 0 127 0" result="hardAlpha"/>
<feOffset dy="4"/>
<feGaussianBlur stdDeviation="1.5"/>
<feComposite in2="hardAlpha" operator="out"/>
<feColorMatrix type="matrix" values="0 0 0 0 0 0 0 0 0 0 0 0 0 0 0 0 0 0 0.25 0"/>
<feBlend mode="normal" in2="BackgroundImageFix" result="effect1_dropShadow_365_127"/>
<feBlend mode="normal" in="SourceGraphic" in2="effect1_dropShadow_365_127" result="shape"/>
</filter>
</defs>
</svg>
