<svg width="70" height="57" viewBox="0 0 70 57" fill="none" xmlns="http://www.w3.org/2000/svg">
<rect width="70" height="56" rx="4" fill="white"/>
<g filter="url(#filter0_d_277_75)">
<path d="M18.88 44.944C18.88 45.136 18.832 45.312 18.736 45.472C18.64 45.632 18.512 45.76 18.352 45.856C18.192 45.952 18.016 46 17.824 46H15.688C15.5867 46 15.4987 45.9653 15.424 45.896C15.3547 45.8213 15.32 45.7333 15.32 45.632V40.96C15.32 40.8533 15.3547 40.7653 15.424 40.696C15.4987 40.6267 15.5867 40.592 15.688 40.592H17.824C18.016 40.592 18.192 40.64 18.352 40.736C18.512 40.832 18.64 40.96 18.736 41.12C18.832 41.28 18.88 41.4587 18.88 41.656V44.944ZM17.928 44.944V41.656C17.928 41.5813 17.8933 41.544 17.824 41.544H16.384C16.3147 41.544 16.28 41.5787 16.28 41.648V44.952C16.28 45.0213 16.3147 45.056 16.384 45.056H17.824C17.8507 45.056 17.8747 45.0453 17.896 45.024C17.9173 44.9973 17.928 44.9707 17.928 44.944ZM20.7389 41.104C20.7389 41.2693 20.6776 41.4133 20.5549 41.536C20.4376 41.6533 20.2989 41.712 20.1389 41.712C19.9736 41.712 19.8296 41.6533 19.7069 41.536C19.5896 41.4133 19.5309 41.2693 19.5309 41.104C19.5309 40.944 19.5896 40.8053 19.7069 40.688C19.8296 40.5653 19.9736 40.504 20.1389 40.504C20.2989 40.504 20.4376 40.5653 20.5549 40.688C20.6776 40.8053 20.7389 40.944 20.7389 41.104ZM20.6109 45.632C20.6109 45.7333 20.5736 45.8213 20.4989 45.896C20.4296 45.9653 20.3443 46 20.2429 46H20.0269C19.9256 46 19.8376 45.9653 19.7629 45.896C19.6936 45.8213 19.6589 45.7333 19.6589 45.632V42.312C19.6589 42.2107 19.6936 42.1253 19.7629 42.056C19.8376 41.9813 19.9256 41.944 20.0269 41.944H20.2429C20.3443 41.944 20.4296 41.9813 20.4989 42.056C20.5736 42.1253 20.6109 42.2107 20.6109 42.312V45.632ZM24.2785 45.104C24.2785 45.3547 24.1905 45.568 24.0145 45.744C23.8438 45.9147 23.6358 46 23.3905 46H22.4465C22.4198 46 22.3932 46.0107 22.3665 46.032C22.3452 46.0533 22.3345 46.0773 22.3345 46.104V46.912C22.3345 47.0133 22.2998 47.0987 22.2305 47.168C22.1612 47.2427 22.0758 47.28 21.9745 47.28H21.7505C21.6492 47.28 21.5612 47.2427 21.4865 47.168C21.4172 47.0987 21.3825 47.0133 21.3825 46.912V42.752C21.3825 42.5867 21.4225 42.4373 21.5025 42.304C21.5878 42.1653 21.6972 42.056 21.8305 41.976C21.9638 41.896 22.1132 41.856 22.2785 41.856H23.3905C23.5558 41.856 23.7052 41.896 23.8385 41.976C23.9718 42.056 24.0785 42.1653 24.1585 42.304C24.2385 42.4373 24.2785 42.5867 24.2785 42.752V45.104ZM23.3345 44.952V42.92C23.3345 42.888 23.3212 42.8613 23.2945 42.84C23.2732 42.8187 23.2492 42.808 23.2225 42.808H22.4465C22.4198 42.808 22.3932 42.8187 22.3665 42.84C22.3452 42.8613 22.3345 42.888 22.3345 42.92V44.952C22.3345 44.9787 22.3452 45.0027 22.3665 45.024C22.3932 45.0453 22.4198 45.056 22.4465 45.056H23.2225C23.2492 45.056 23.2732 45.0453 23.2945 45.024C23.3212 45.0027 23.3345 44.9787 23.3345 44.952ZM27.8254 43.624C27.8254 43.784 27.7854 43.9333 27.7054 44.072C27.6254 44.2053 27.5187 44.3147 27.3854 44.4C27.252 44.48 27.1027 44.52 26.9374 44.52H25.9934C25.9667 44.52 25.94 44.5307 25.9134 44.552C25.892 44.568 25.8814 44.5893 25.8814 44.616V44.952C25.8814 44.9787 25.892 45.0027 25.9134 45.024C25.94 45.0453 25.9667 45.056 25.9934 45.056H26.9374C27.0387 45.056 27.124 45.0907 27.1934 45.16C27.268 45.2293 27.3054 45.3173 27.3054 45.424V45.632C27.3054 45.7333 27.268 45.8213 27.1934 45.896C27.124 45.9653 27.0387 46 26.9374 46H25.8254C25.58 46 25.3694 45.9147 25.1934 45.744C25.0174 45.568 24.9294 45.3547 24.9294 45.104V42.752C24.9294 42.5867 24.9694 42.4373 25.0494 42.304C25.1347 42.1707 25.244 42.064 25.3774 41.984C25.5107 41.8987 25.66 41.856 25.8254 41.856H26.9374C27.1027 41.856 27.252 41.8987 27.3854 41.984C27.5187 42.064 27.6254 42.1707 27.7054 42.304C27.7854 42.4373 27.8254 42.5867 27.8254 42.752V43.624ZM26.8814 43.464V42.92C26.8814 42.888 26.868 42.8613 26.8414 42.84C26.82 42.8187 26.796 42.808 26.7694 42.808H25.9934C25.9667 42.808 25.94 42.8187 25.9134 42.84C25.892 42.8613 25.8814 42.888 25.8814 42.92V43.464C25.8814 43.4853 25.892 43.5067 25.9134 43.528C25.94 43.5493 25.9667 43.56 25.9934 43.56H26.7694C26.796 43.56 26.82 43.5493 26.8414 43.528C26.868 43.5067 26.8814 43.4853 26.8814 43.464ZM31.3723 45.104C31.3723 45.3547 31.2843 45.568 31.1083 45.744C30.9376 45.9147 30.7296 46 30.4843 46H29.3723C29.1269 46 28.9163 45.9147 28.7403 45.744C28.5643 45.568 28.4763 45.3547 28.4763 45.104V44.776C28.4763 44.6747 28.5109 44.5893 28.5803 44.52C28.6549 44.4453 28.7429 44.408 28.8443 44.408H29.0683C29.1696 44.408 29.2549 44.4453 29.3243 44.52C29.3936 44.5893 29.4283 44.6747 29.4283 44.776V44.952C29.4283 45.0213 29.4656 45.056 29.5403 45.056H30.3163C30.3429 45.056 30.3669 45.0453 30.3883 45.024C30.4149 45.0027 30.4283 44.9787 30.4283 44.952V44.656C30.4283 44.6133 30.4069 44.584 30.3643 44.568L29.2043 44.2C28.9909 44.1253 28.8149 43.9973 28.6763 43.816C28.5429 43.6347 28.4763 43.4293 28.4763 43.2V42.752C28.4763 42.5867 28.5163 42.4373 28.5963 42.304C28.6816 42.1707 28.7909 42.064 28.9243 41.984C29.0576 41.8987 29.2069 41.856 29.3723 41.856H30.4843C30.6496 41.856 30.7989 41.8987 30.9323 41.984C31.0656 42.064 31.1723 42.1707 31.2523 42.304C31.3323 42.4373 31.3723 42.5867 31.3723 42.752V43.072C31.3723 43.1733 31.3376 43.2613 31.2683 43.336C31.1989 43.4053 31.1136 43.44 31.0123 43.44H30.7883C30.6869 43.44 30.6016 43.4053 30.5323 43.336C30.4629 43.2613 30.4283 43.1733 30.4283 43.072V42.92C30.4283 42.888 30.4149 42.8613 30.3883 42.84C30.3669 42.8187 30.3429 42.808 30.3163 42.808H29.5403C29.4656 42.808 29.4283 42.8453 29.4283 42.92V43.2C29.4283 43.2533 29.4496 43.2853 29.4923 43.296L30.6523 43.664C30.8709 43.7333 31.0443 43.8587 31.1723 44.04C31.3056 44.2213 31.3723 44.4267 31.3723 44.656V45.104ZM34.9191 45.632C34.9191 45.7333 34.8845 45.8213 34.8151 45.896C34.7458 45.9653 34.6605 46 34.5591 46H34.3351C34.2338 46 34.1485 45.9653 34.0791 45.896C34.0098 45.8213 33.9751 45.7333 33.9751 45.632V42.92C33.9751 42.888 33.9618 42.8613 33.9351 42.84C33.9138 42.8187 33.8898 42.808 33.8631 42.808H33.0871C33.0605 42.808 33.0338 42.8187 33.0071 42.84C32.9858 42.8613 32.9751 42.888 32.9751 42.92V45.632C32.9751 45.7333 32.9405 45.8213 32.8711 45.896C32.8018 45.9653 32.7165 46 32.6151 46H32.3911C32.2898 46 32.2018 45.9653 32.1271 45.896C32.0578 45.8213 32.0231 45.7333 32.0231 45.632V40.96C32.0231 40.8533 32.0578 40.7653 32.1271 40.696C32.2018 40.6267 32.2898 40.592 32.3911 40.592H32.6151C32.7165 40.592 32.8018 40.6267 32.8711 40.696C32.9405 40.7653 32.9751 40.8533 32.9751 40.96V41.76C32.9751 41.7867 32.9858 41.8107 33.0071 41.832C33.0338 41.848 33.0605 41.856 33.0871 41.856H34.0311C34.1965 41.856 34.3458 41.896 34.4791 41.976C34.6125 42.056 34.7191 42.1653 34.7991 42.304C34.8791 42.4373 34.9191 42.5867 34.9191 42.752V45.632ZM41.0778 44.944C41.0778 45.136 41.0298 45.312 40.9338 45.472C40.8378 45.632 40.7098 45.76 40.5498 45.856C40.3898 45.952 40.2138 46 40.0218 46H38.4858C38.2938 46 38.1151 45.952 37.9498 45.856C37.7898 45.76 37.6618 45.632 37.5658 45.472C37.4698 45.312 37.4218 45.136 37.4218 44.944V44.704C37.4218 44.6027 37.4564 44.5173 37.5258 44.448C37.6004 44.3733 37.6884 44.336 37.7898 44.336H38.0138C38.1098 44.336 38.1924 44.3733 38.2618 44.448C38.3364 44.5173 38.3738 44.6027 38.3738 44.704V44.944C38.3738 44.9707 38.3844 44.9973 38.4058 45.024C38.4324 45.0453 38.4591 45.056 38.4858 45.056H40.0218C40.0484 45.056 40.0724 45.0453 40.0938 45.024C40.1151 44.9973 40.1258 44.9707 40.1258 44.944V44.216C40.1258 44.1573 40.0991 44.12 40.0458 44.104L38.1258 43.384C37.9124 43.3093 37.7418 43.1787 37.6138 42.992C37.4858 42.8053 37.4218 42.6 37.4218 42.376V41.656C37.4218 41.4587 37.4698 41.28 37.5658 41.12C37.6618 40.96 37.7898 40.832 37.9498 40.736C38.1151 40.64 38.2938 40.592 38.4858 40.592H40.0218C40.2138 40.592 40.3898 40.64 40.5498 40.736C40.7098 40.832 40.8378 40.96 40.9338 41.12C41.0298 41.28 41.0778 41.4587 41.0778 41.656V41.872C41.0778 41.9733 41.0404 42.0587 40.9658 42.128C40.8964 42.1973 40.8111 42.232 40.7098 42.232H40.4938C40.3924 42.232 40.3044 42.1973 40.2298 42.128C40.1604 42.0587 40.1258 41.9733 40.1258 41.872V41.656C40.1258 41.5813 40.0911 41.544 40.0218 41.544H38.4858C38.4591 41.544 38.4324 41.5547 38.4058 41.576C38.3844 41.5973 38.3738 41.624 38.3738 41.656V42.376C38.3738 42.44 38.4004 42.48 38.4538 42.496L40.3818 43.216C40.5898 43.2907 40.7578 43.4213 40.8858 43.608C41.0138 43.7947 41.0778 43.9973 41.0778 44.216V44.944ZM42.9343 41.104C42.9343 41.2693 42.8729 41.4133 42.7503 41.536C42.6329 41.6533 42.4943 41.712 42.3343 41.712C42.1689 41.712 42.0249 41.6533 41.9023 41.536C41.7849 41.4133 41.7263 41.2693 41.7263 41.104C41.7263 40.944 41.7849 40.8053 41.9023 40.688C42.0249 40.5653 42.1689 40.504 42.3343 40.504C42.4943 40.504 42.6329 40.5653 42.7503 40.688C42.8729 40.8053 42.9343 40.944 42.9343 41.104ZM42.8063 45.632C42.8063 45.7333 42.7689 45.8213 42.6943 45.896C42.6249 45.9653 42.5396 46 42.4383 46H42.2223C42.1209 46 42.0329 45.9653 41.9583 45.896C41.8889 45.8213 41.8543 45.7333 41.8543 45.632V42.312C41.8543 42.2107 41.8889 42.1253 41.9583 42.056C42.0329 41.9813 42.1209 41.944 42.2223 41.944H42.4383C42.5396 41.944 42.6249 41.9813 42.6943 42.056C42.7689 42.1253 42.8063 42.2107 42.8063 42.312V45.632ZM46.4738 45.632C46.4738 45.7333 46.4391 45.8213 46.3698 45.896C46.3005 45.9653 46.2151 46 46.1138 46H45.8898C45.7885 46 45.7031 45.9653 45.6338 45.896C45.5645 45.8213 45.5298 45.7333 45.5298 45.632V42.92C45.5298 42.888 45.5165 42.8613 45.4898 42.84C45.4685 42.8187 45.4445 42.808 45.4178 42.808H44.6418C44.6151 42.808 44.5885 42.8187 44.5618 42.84C44.5405 42.8613 44.5298 42.888 44.5298 42.92V45.632C44.5298 45.7333 44.4951 45.8213 44.4258 45.896C44.3565 45.9653 44.2711 46 44.1698 46H43.9458C43.8445 46 43.7565 45.9653 43.6818 45.896C43.6125 45.8213 43.5778 45.7333 43.5778 45.632V42.752C43.5778 42.5867 43.6178 42.4373 43.6978 42.304C43.7831 42.1653 43.8925 42.056 44.0258 41.976C44.1591 41.896 44.3085 41.856 44.4738 41.856H45.5858C45.7511 41.856 45.9005 41.896 46.0338 41.976C46.1671 42.056 46.2738 42.1653 46.3538 42.304C46.4338 42.4373 46.4738 42.5867 46.4738 42.752V45.632ZM50.0207 46.384C50.0207 46.544 49.9807 46.6907 49.9007 46.824C49.8207 46.9627 49.714 47.072 49.5807 47.152C49.4474 47.2373 49.298 47.28 49.1327 47.28H48.0207C47.9194 47.28 47.8314 47.2427 47.7567 47.168C47.6874 47.0987 47.6527 47.0133 47.6527 46.912V46.688C47.6527 46.5867 47.6874 46.5013 47.7567 46.432C47.8314 46.3627 47.9194 46.328 48.0207 46.328H48.9647C48.9914 46.328 49.0154 46.3173 49.0367 46.296C49.0634 46.2747 49.0767 46.2507 49.0767 46.224V46.104C49.0767 46.0773 49.0634 46.0533 49.0367 46.032C49.0154 46.0107 48.9914 46 48.9647 46H48.0207C47.7754 46 47.5647 45.9147 47.3887 45.744C47.2127 45.568 47.1247 45.3547 47.1247 45.104V42.752C47.1247 42.5867 47.1647 42.4373 47.2447 42.304C47.33 42.1653 47.4394 42.056 47.5727 41.976C47.706 41.896 47.8554 41.856 48.0207 41.856H49.1327C49.298 41.856 49.4474 41.896 49.5807 41.976C49.714 42.056 49.8207 42.1653 49.9007 42.304C49.9807 42.4373 50.0207 42.5867 50.0207 42.752V46.384ZM49.0767 44.952V42.92C49.0767 42.888 49.0634 42.8613 49.0367 42.84C49.0154 42.8187 48.9914 42.808 48.9647 42.808H48.1887C48.162 42.808 48.1354 42.8187 48.1087 42.84C48.0874 42.8613 48.0767 42.888 48.0767 42.92V44.952C48.0767 44.9787 48.0874 45.0027 48.1087 45.024C48.1354 45.0453 48.162 45.056 48.1887 45.056H48.9647C48.9914 45.056 49.0154 45.0453 49.0367 45.024C49.0634 45.0027 49.0767 44.9787 49.0767 44.952ZM53.5676 45.632C53.5676 45.7333 53.5329 45.8213 53.4636 45.896C53.3942 45.9653 53.3089 46 53.2076 46H52.9836C52.8822 46 52.7969 45.9653 52.7276 45.896C52.6582 45.8213 52.6236 45.7333 52.6236 45.632V42.92C52.6236 42.888 52.6102 42.8613 52.5836 42.84C52.5622 42.8187 52.5382 42.808 52.5116 42.808H51.7356C51.7089 42.808 51.6822 42.8187 51.6556 42.84C51.6342 42.8613 51.6236 42.888 51.6236 42.92V45.632C51.6236 45.7333 51.5889 45.8213 51.5196 45.896C51.4502 45.9653 51.3649 46 51.2636 46H51.0396C50.9382 46 50.8502 45.9653 50.7756 45.896C50.7062 45.8213 50.6716 45.7333 50.6716 45.632V40.96C50.6716 40.8533 50.7062 40.7653 50.7756 40.696C50.8502 40.6267 50.9382 40.592 51.0396 40.592H51.2636C51.3649 40.592 51.4502 40.6267 51.5196 40.696C51.5889 40.7653 51.6236 40.8533 51.6236 40.96V41.76C51.6236 41.7867 51.6342 41.8107 51.6556 41.832C51.6822 41.848 51.7089 41.856 51.7356 41.856H52.6796C52.8449 41.856 52.9942 41.896 53.1276 41.976C53.2609 42.056 53.3676 42.1653 53.4476 42.304C53.5276 42.4373 53.5676 42.5867 53.5676 42.752V45.632Z" fill="#B291C2"/>
</g>
<g filter="url(#filter1_d_277_75)">
<path d="M52.2901 19.5594L34 31.2428V25.6147L48.137 17.1709V17.0702L34 8.62112V3L52.2901 14.6834V19.5594Z" fill="#A177B4"/>
</g>
<g filter="url(#filter2_d_277_75)">
<path d="M16 21.8336L34.2895 10V15.6276L20.4583 24.069V24.1749L34.2932 32.618V38.2456L16 26.3999V21.8336Z" fill="white"/>
</g>
<defs>
<filter id="filter0_d_277_75" x="10.32" y="39.504" width="48.2476" height="16.776" filterUnits="userSpaceOnUse" color-interpolation-filters="sRGB">
<feFlood flood-opacity="0" result="BackgroundImageFix"/>
<feColorMatrix in="SourceAlpha" type="matrix" values="0 0 0 0 0 0 0 0 0 0 0 0 0 0 0 0 0 0 127 0" result="hardAlpha"/>
<feOffset dy="4"/>
<feGaussianBlur stdDeviation="2.5"/>
<feComposite in2="hardAlpha" operator="out"/>
<feColorMatrix type="matrix" values="0 0 0 0 0 0 0 0 0 0 0 0 0 0 0 0 0 0 0.25 0"/>
<feBlend mode="normal" in2="BackgroundImageFix" result="effect1_dropShadow_277_75"/>
<feBlend mode="normal" in="SourceGraphic" in2="effect1_dropShadow_277_75" result="shape"/>
</filter>
<filter id="filter1_d_277_75" x="31" y="3" width="24.2901" height="35.2428" filterUnits="userSpaceOnUse" color-interpolation-filters="sRGB">
<feFlood flood-opacity="0" result="BackgroundImageFix"/>
<feColorMatrix in="SourceAlpha" type="matrix" values="0 0 0 0 0 0 0 0 0 0 0 0 0 0 0 0 0 0 127 0" result="hardAlpha"/>
<feOffset dy="4"/>
<feGaussianBlur stdDeviation="1.5"/>
<feComposite in2="hardAlpha" operator="out"/>
<feColorMatrix type="matrix" values="0 0 0 0 0 0 0 0 0 0 0 0 0 0 0 0 0 0 0.25 0"/>
<feBlend mode="normal" in2="BackgroundImageFix" result="effect1_dropShadow_277_75"/>
<feBlend mode="normal" in="SourceGraphic" in2="effect1_dropShadow_277_75" result="shape"/>
</filter>
<filter id="filter2_d_277_75" x="13" y="10" width="24.2932" height="35.2456" filterUnits="userSpaceOnUse" color-interpolation-filters="sRGB">
<feFlood flood-opacity="0" result="BackgroundImageFix"/>
<feColorMatrix in="SourceAlpha" type="matrix" values="0 0 0 0 0 0 0 0 0 0 0 0 0 0 0 0 0 0 127 0" result="hardAlpha"/>
<feOffset dy="4"/>
<feGaussianBlur stdDeviation="1.5"/>
<feComposite in2="hardAlpha" operator="out"/>
<feColorMatrix type="matrix" values="0 0 0 0 0 0 0 0 0 0 0 0 0 0 0 0 0 0 0.25 0"/>
<feBlend mode="normal" in2="BackgroundImageFix" result="effect1_dropShadow_277_75"/>
<feBlend mode="normal" in="SourceGraphic" in2="effect1_dropShadow_277_75" result="shape"/>
</filter>
</defs>
</svg>
